<svg width="1328" height="518" viewBox="0 0 1328 518" fill="none" xmlns="http://www.w3.org/2000/svg">
<path d="M300.733 390.541C191.627 367.758 147.732 285.542 281.732 129.542C345.296 55.5416 364.232 48.0416 402.732 15.5416C412.732 5.54153 407.232 -3.45844 385.232 6.04154C322.232 40.5415 182.732 129.541 65.7324 260.541C55.7323 274.541 9.7325 321.541 3.73248 361.541C-0.617548 390.541 4.06607 427.541 22.7327 454.541C33.7945 470.541 68.0659 491.542 74.7326 494.542C190.733 546.742 342.733 496.541 705.733 390.541L1312.16 224.775C1322.77 221.542 1326.62 210.986 1325.2 207.833C1325.2 205.5 1318.33 196.942 1292.73 202.542C1061.69 254.067 432.733 418.106 300.733 390.541Z" stroke="black" stroke-width="4"/>
</svg>
